<svg width="32" height="32" viewBox="0 0 32 32" fill="none" xmlns="http://www.w3.org/2000/svg">
  <defs>
    <linearGradient id="gradient1" x1="0%" y1="0%" x2="100%" y2="100%">
      <stop offset="0%" style="stop-color:#007bff;stop-opacity:1" />
      <stop offset="100%" style="stop-color:#ffc107;stop-opacity:1" />
    </linearGradient>
    <linearGradient id="gradient2" x1="0%" y1="0%" x2="100%" y2="100%">
      <stop offset="0%" style="stop-color:#dc3545;stop-opacity:1" />
      <stop offset="100%" style="stop-color:#28a745;stop-opacity:1" />
    </linearGradient>
  </defs>
  
  <!-- Background circle -->
  <circle cx="16" cy="16" r="15" fill="url(#gradient1)" stroke="url(#gradient2)" stroke-width="2"/>
  
  <!-- Arcade machine icon -->
  <rect x="8" y="6" width="16" height="20" rx="2" fill="url(#gradient2)" opacity="0.8"/>
  <rect x="9" y="7" width="14" height="18" rx="1" fill="#0f0f23"/>
  
  <!-- Screen -->
  <rect x="10" y="8" width="12" height="8" fill="url(#gradient1)" opacity="0.6"/>
  <rect x="11" y="9" width="10" height="6" fill="#0f0f23"/>
  
  <!-- Control panel -->
  <rect x="10" y="17" width="12" height="6" fill="url(#gradient2)" opacity="0.4"/>
  
  <!-- Joystick -->
  <circle cx="13" cy="20" r="1.5" fill="url(#gradient1)"/>
  <circle cx="19" cy="20" r="1.5" fill="url(#gradient1)"/>
  
  <!-- Buttons -->
  <circle cx="13" cy="22" r="0.8" fill="url(#gradient2)"/>
  <circle cx="19" cy="22" r="0.8" fill="url(#gradient2)"/>
  
  <!-- Side panels -->
  <rect x="6" y="8" width="2" height="16" fill="url(#gradient1)" opacity="0.6"/>
  <rect x="24" y="8" width="2" height="16" fill="url(#gradient1)" opacity="0.6"/>
  
  <!-- Base -->
  <rect x="4" y="26" width="24" height="4" rx="2" fill="url(#gradient2)" opacity="0.8"/>
</svg>
